<?xml version="1.0" encoding="UTF-8"?>
<svg id="Layer_1" data-name="Layer 1" xmlns="http://www.w3.org/2000/svg" viewBox="0 0 151.44 183.76">
  <defs>
    <style>
      .cls-1 {
        fill: #010101;
      }
    </style>
  </defs>
  <rect class="cls-1" x=".12" y="164.09" width="151.19" height="19.52"/>
  <g>
    <path class="cls-1" d="M89.88,27.29L75.72.16l-14.16,27.14L.12,145.01l28.41-.05,47.18-90.51,47.18,90.51,28.41.05L89.88,27.29ZM75.79,54.42l-.07-.13-47.23,90.59-28.25.05L75.72.32l75.47,144.61-28.25-.05-47.16-90.47Z"/>
    <path class="cls-1" d="M75.79.13l-.07-.13L.06,144.97l-.06.11,28.54-.05h.05l47.14-90.42,47.11,90.38.02.04,28.46.05h.12L75.79.13ZM75.72,54.29l-47.23,90.59-28.25.05L75.72.32l75.47,144.61-28.25-.05-47.16-90.47-.07-.13Z"/>
    <polygon class="cls-1" points="151.19 144.93 122.95 144.89 75.79 54.42 75.72 54.29 28.49 144.89 .25 144.93 75.72 .32 151.19 144.93"/>
  </g>
</svg>